<svg width="20" height="21" viewBox="0 0 20 21" fill="none" xmlns="http://www.w3.org/2000/svg">
    <path d="M3.33331 9.45264V12.786C3.33331 15.5358 3.33331 16.9108 4.18758 17.765C5.04186 18.6193 6.41679 18.6193 9.16665 18.6193H10.8333C13.5832 18.6193 14.9581 18.6193 15.8124 17.765C16.6666 16.9108 16.6666 15.5358 16.6666 12.786V9.45264" stroke="#744924" stroke-width="1.5" stroke-linecap="round" stroke-linejoin="round"/>
    <path d="M2.5 7.78581C2.5 7.16273 2.5 6.85119 2.66747 6.61914C2.77718 6.46712 2.93498 6.34088 3.125 6.25312C3.41506 6.11914 3.80449 6.11914 4.58333 6.11914H15.4167C16.1955 6.11914 16.5849 6.11914 16.875 6.25312C17.065 6.34088 17.2228 6.46712 17.3325 6.61914C17.5 6.85119 17.5 7.16273 17.5 7.78581C17.5 8.40888 17.5 8.72042 17.3325 8.95247C17.2228 9.10449 17.065 9.23073 16.875 9.3185C16.5849 9.45247 16.1955 9.45247 15.4167 9.45247H4.58333C3.80449 9.45247 3.41506 9.45247 3.125 9.3185C2.93498 9.23073 2.77718 9.10449 2.66747 8.95247C2.5 8.72042 2.5 8.40888 2.5 7.78581Z" stroke="#744924" stroke-width="1.5" stroke-linejoin="round"/>
    <path d="M5 3.44073C5 2.61888 5.66624 1.95264 6.4881 1.95264H6.78571C8.56092 1.95264 10 3.39172 10 5.16692V6.1193H7.67857C6.19924 6.1193 5 4.92007 5 3.44073Z" stroke="#744924" stroke-width="1.5" stroke-linejoin="round"/>
    <path d="M15 3.44073C15 2.61888 14.3338 1.95264 13.5119 1.95264H13.2143C11.4391 1.95264 10 3.39172 10 5.16692V6.1193H12.3214C13.8008 6.1193 15 4.92007 15 3.44073Z" stroke="#744924" stroke-width="1.5" stroke-linejoin="round"/>
    <path d="M10 9.45264L10 18.6193" stroke="#744924" stroke-width="1.5" stroke-linecap="round" stroke-linejoin="round"/>
</svg>
